<?xml version="1.0" encoding="UTF-8" standalone="no"?>
<svg width="300px" height="63px" viewBox="0 0 300 63" version="1.1" xmlns="http://www.w3.org/2000/svg" xmlns:xlink="http://www.w3.org/1999/xlink" xmlns:sketch="http://www.bohemiancoding.com/sketch/ns">
    <title>Untitled</title>
    <description>Created with Sketch (http://www.bohemiancoding.com/sketch)</description>
    <defs></defs>
    <g id="Page-1" stroke="none" stroke-width="1" fill="none" fill-rule="evenodd" sketch:type="MSPage">
        <g id="acquia_white" sketch:type="MSLayerGroup" transform="translate(0.000000, 1.000000)" fill="#FFFFFF">
            <path d="M184.924,61.405 C171.321,61.405 161.439,50.425 161.439,35.298 L161.445,10.459 L171.39,10.459 L171.39,35.298 C171.39,45.543 176.608,51.907 185.008,51.907 C193.398,51.907 198.606,45.543 198.606,35.298 L198.58,10.43 L208.554,10.43 L208.554,35.298 C208.554,50.425 198.613,61.405 184.924,61.405" id="Fill-1" sketch:type="MSShapeGroup"></path>
            <path d="M217.751,10.43 L227.656,10.43 L227.656,60.007 L217.751,60.007 L217.751,10.43 Z" id="Fill-2" sketch:type="MSShapeGroup"></path>
            <path d="M84.136,52.467 C74.886,52.467 67.386,44.97 67.386,35.721 C67.386,26.472 74.886,18.976 84.136,18.976 C88.522,18.976 92.504,20.677 95.487,23.436 C96.665,20.377 98.264,17.537 100.22,14.972 C95.773,11.516 90.201,9.441 84.136,9.441 C69.623,9.441 57.854,21.208 57.854,35.721 C57.854,50.233 69.623,62 84.136,62 C90.201,62 95.773,59.923 100.22,56.47 C98.264,53.903 96.665,51.066 95.487,48.007 C92.504,50.767 88.522,52.467 84.136,52.467" id="Fill-3" sketch:type="MSShapeGroup"></path>
            <path d="M260.176,17.571 C255.773,17.571 252.04,19.265 249.079,22.601 C246.188,25.944 244.723,30.109 244.723,34.985 C244.723,40.179 246.149,44.481 248.959,47.775 C251.884,51.159 255.623,52.876 260.07,52.876 C264.789,52.876 268.665,51.219 271.588,47.956 C274.484,44.609 275.949,40.337 275.949,35.25 C275.949,30.165 274.486,25.896 271.603,22.559 C268.671,19.249 264.827,17.571 260.176,17.571 L260.176,17.571 Z M258.27,61.343 C251.489,61.343 245.806,58.859 241.382,53.963 C236.965,48.941 234.722,42.557 234.722,34.985 C234.722,27.561 236.963,21.299 241.384,16.374 C245.773,11.481 251.347,9.001 257.951,9.001 C263.622,9.001 268.794,11.383 273.326,16.086 L275.207,18.033 L275.207,10.43 L284.996,10.43 L284.996,59.858 L275.207,59.858 L275.207,53.026 L273.366,54.747 C268.687,59.124 263.607,61.343 258.27,61.343 L258.27,61.343 Z" id="Fill-4" sketch:type="MSShapeGroup"></path>
            <path d="M129.065,9.44 C129.013,9.439 128.964,9.437 128.912,9.434 C128.443,9.408 128.309,9.629 128.476,9.977 C128.499,10.031 128.522,10.085 128.55,10.138 C129.475,12.095 131.852,16.868 136.019,20.154 C141.395,24.39 144.658,29.413 144.658,35.702 C144.658,43.686 138.401,52.415 128.162,52.415 C117.923,52.415 111.665,43.686 111.665,35.702 C111.665,29.413 114.929,24.39 120.306,20.154 C124.549,16.806 126.982,11.943 127.819,10.041 C127.997,9.671 127.898,9.421 127.465,9.412 L127.381,9.412 C113.143,9.716 101.653,21.395 101.653,35.702 C101.653,47.427 111.589,61.066 127.623,61.066 C143.656,61.066 154.253,50.13 154.253,35.702 C154.253,21.273 143.049,10.028 129.065,9.44" id="Fill-5" sketch:type="MSShapeGroup"></path>
            <path d="M147.536,43.592 L140.725,50.784 L150.364,59.91 L164.772,59.91 L147.536,43.592" id="Fill-6" sketch:type="MSShapeGroup"></path>
            <path d="M18.274,42.489 L29.843,16.854 L41.416,42.489 L18.274,42.489 L18.274,42.489 Z M49.323,60.007 L59.685,60.007 L33.66,2.328 C32.998,0.875 31.54,-0.14 29.843,-0.14 C28.144,-0.14 26.687,0.875 26.026,2.328 L0,60.007 L10.364,60.007 L14.136,51.76 L45.604,51.76 L49.323,60.007 L49.323,60.007 Z" id="Fill-7" sketch:type="MSShapeGroup"></path>
            <path d="M294.083,13.928 L294.598,13.928 C295.198,13.928 295.684,13.728 295.684,13.242 C295.684,12.814 295.37,12.527 294.683,12.527 C294.398,12.527 294.198,12.556 294.083,12.585 L294.083,13.928 L294.083,13.928 Z M294.055,16.557 L292.969,16.557 L292.969,11.899 C293.398,11.814 293.997,11.728 294.769,11.728 C295.656,11.728 296.055,11.871 296.398,12.099 C296.656,12.299 296.855,12.67 296.855,13.099 C296.855,13.642 296.456,14.042 295.883,14.213 L295.883,14.271 C296.341,14.414 296.597,14.785 296.742,15.415 C296.884,16.129 296.97,16.414 297.084,16.557 L295.913,16.557 C295.769,16.386 295.684,15.986 295.541,15.442 C295.455,14.928 295.17,14.7 294.569,14.7 L294.055,14.7 L294.055,16.557 L294.055,16.557 Z M294.769,10.384 C292.711,10.384 291.168,12.071 291.168,14.129 C291.168,16.214 292.711,17.872 294.827,17.872 C296.884,17.9 298.399,16.214 298.399,14.129 C298.399,12.071 296.884,10.384 294.797,10.384 L294.769,10.384 L294.769,10.384 Z M294.827,9.441 C297.512,9.441 299.598,11.527 299.598,14.129 C299.598,16.786 297.512,18.843 294.797,18.843 C292.111,18.843 289.968,16.786 289.968,14.129 C289.968,11.527 292.111,9.441 294.797,9.441 L294.827,9.441 L294.827,9.441 Z" id="Fill-8" sketch:type="MSShapeGroup"></path>
        </g>
    </g>
</svg>