<svg xmlns="http://www.w3.org/2000/svg" xmlns:xlink="http://www.w3.org/1999/xlink" version="1.1" id="Layer_1" x="0px" y="0px" width="90px" height="90px" viewBox="252.64 375.945 90 90" enable-background="new 252.64 375.945 90 90" xml:space="preserve">
<g>
	<g>
		<polygon points="283.204,443.155 272.855,443.155 270.785,437.912 272.855,410.039 283.204,410.039 284.584,437.912   "/>
		<polygon points="303.3,443.155 292.952,443.155 290.882,437.912 292.952,410.039 303.3,410.039 304.681,437.912   "/>
		<polygon points="323.398,443.155 313.049,443.155 310.98,437.912 313.049,410.039 323.398,410.039 324.778,437.912   "/>
	</g>
	<path d="M332.557,447.188c0,1.518-1.569,2.76-3.487,2.76h-62.576c-1.918,0-3.487-1.242-3.487-2.76c0-1.519,1.569-2.761,3.487-2.761   h62.576C330.988,444.427,332.557,445.669,332.557,447.188z"/>
	<path d="M339.04,454.377c0,1.518-1.569,2.76-3.487,2.76h-75.544c-1.917,0-3.487-1.242-3.487-2.76s1.569-2.76,3.487-2.76h75.544   C337.471,451.617,339.04,452.859,339.04,454.377z"/>
	<path d="M334.65,404.519c0,1.797-1.471,3.267-3.268,3.267h-67.203c-1.797,0-3.267-1.47-3.267-3.267v-2.435   c0-1.797,1.47-3.267,3.267-3.267h67.203c1.797,0,3.268,1.47,3.268,3.267V404.519z"/>
	<path d="M276.016,396c-1.797,0-2.056-0.833-0.575-1.852l19.648-13.519c1.48-1.019,3.903-1.019,5.383,0l19.648,13.519   c1.48,1.019,1.221,1.852-0.576,1.852H276.016z"/>
</g>
</svg>