<?xml version="1.0" encoding="UTF-8" standalone="no"?>
<svg width="310px" height="47px" viewBox="0 0 310 47" version="1.1" xmlns="http://www.w3.org/2000/svg" xmlns:xlink="http://www.w3.org/1999/xlink" xmlns:sketch="http://www.bohemiancoding.com/sketch/ns">
    <title>Untitled</title>
    <description>Created with Sketch (http://www.bohemiancoding.com/sketch)</description>
    <defs>
        <path id="path-1" d="M17.253,1.366 C15.691,2.651 13.848,3.283 12.517,3.601 C9.397,3.891 6.355,5.229 3.965,7.618 C-1.474,13.058 -1.474,21.877 3.965,27.317 C9.405,32.756 18.224,32.756 23.664,27.317 C29.103,21.877 29.103,13.058 23.664,7.618 C23.512,7.466 23.348,7.334 23.19,7.19 C22.577,6.497 21.822,5.614 20.986,4.566 C18.891,1.938 21.053,-0.3 21.053,-0.3 C21.053,-0.3 20.929,-0.424 20.596,-0.424 C20.083,-0.424 19.072,-0.13 17.253,1.366"></path>
        <path id="path-3" d="M0.06,0.092 L309.999,0.092 L309.999,46.94 L0.06,46.94"></path>
    </defs>
    <g id="Page-1" stroke="none" stroke-width="1" fill="none" fill-rule="evenodd" sketch:type="MSPage">
        <g id="DS-logo-sm-wide_120730" sketch:type="MSLayerGroup">
            <path d="M206.193,21.11 C203.188,21.11 199.209,20.372 197.337,19.472 L197.337,21.83 C199.281,22.676 202.701,23.234 206.193,23.234 C210.909,23.234 212.691,22.532 213.592,21.632 C214.275,20.948 214.473,20.084 214.473,19.148 C214.473,18.248 214.203,17.474 213.699,16.97 C212.835,16.106 211.359,15.71 206.049,15.44 C201.945,15.242 201.1,15.026 200.721,14.648 C200.541,14.468 200.451,14.198 200.451,13.874 C200.451,13.532 200.541,13.244 200.758,13.028 C201.171,12.614 202.161,12.29 205.6,12.29 C208.354,12.29 211.521,12.884 213.43,13.694 L213.43,11.336 C211.755,10.67 209.109,10.166 205.6,10.166 C201.171,10.166 199.443,10.778 198.561,11.66 C197.877,12.344 197.68,13.208 197.68,14.126 C197.68,15.026 197.895,15.728 198.398,16.232 C199.264,17.096 200.793,17.51 205.814,17.762 C210.262,17.996 210.999,18.158 211.395,18.554 C211.611,18.77 211.701,19.058 211.701,19.436 C211.701,19.76 211.611,20.066 211.359,20.318 C210.855,20.822 209.721,21.11 206.193,21.11 L206.193,21.11 Z M229.125,10.04 C224.428,10.04 222.069,11.066 220.846,12.29 C219.729,13.406 219.207,14.792 219.207,16.664 C219.207,18.536 219.729,19.922 220.863,21.056 C222.051,22.244 224.409,23.288 229.125,23.288 C232.887,23.288 235.119,22.604 236.487,21.704 L239.564,23.198 L239.564,20.768 L238.107,20.084 C238.719,19.148 239.043,18.05 239.043,16.664 C239.043,14.792 238.503,13.388 237.405,12.29 C236.199,11.084 233.842,10.04 229.125,10.04 L229.125,10.04 Z M229.125,12.236 C232.527,12.236 234.309,12.938 235.155,13.784 C235.821,14.45 236.234,15.278 236.234,16.664 C236.234,17.636 236.073,18.356 235.749,18.932 L229.863,16.016 L229.863,18.536 L233.842,20.444 C232.797,20.84 231.268,21.092 229.125,21.092 C225.705,21.092 223.905,20.354 223.113,19.562 C222.393,18.842 222.016,18.05 222.016,16.664 C222.016,15.278 222.375,14.45 223.077,13.748 C223.905,12.92 225.723,12.236 229.125,12.236 L229.125,12.236 Z M253.533,21.038 C250.6,21.038 248.961,20.498 248.205,19.742 C247.594,19.13 247.323,18.356 247.323,17.186 L247.323,10.4 L244.533,10.4 L244.533,17.456 C244.533,19.184 245.073,20.354 246.01,21.29 C247.143,22.424 249.285,23.288 253.533,23.288 C257.781,23.288 259.923,22.424 261.057,21.29 C261.993,20.354 262.533,19.184 262.533,17.456 L262.533,10.4 L259.743,10.4 L259.743,17.186 C259.743,18.356 259.473,19.13 258.861,19.742 C258.105,20.498 256.467,21.038 253.533,21.038 L253.533,21.038 Z M274.755,10.328 L265.989,23 L269.066,23 L271.083,20.03 L282.081,20.03 L284.098,23 L287.301,23 L278.535,10.328 L274.755,10.328 L274.755,10.328 Z M276.573,11.912 L280.569,17.798 L272.596,17.798 L276.573,11.912 L276.573,11.912 Z M309.999,16.7 C309.999,14.972 309.514,13.532 308.379,12.398 C307.389,11.408 305.391,10.4 301.089,10.4 L291.873,10.4 L291.873,23 L301.089,23 C305.391,23 307.389,21.992 308.379,21.002 C309.514,19.868 309.999,18.428 309.999,16.7 L309.999,16.7 Z M294.663,20.732 L294.663,12.668 L301.035,12.668 C303.987,12.668 305.518,13.208 306.219,13.91 C306.867,14.558 307.191,15.44 307.191,16.7 C307.191,17.96 306.867,18.842 306.219,19.49 C305.518,20.192 303.987,20.732 301.035,20.732 L294.663,20.732 L294.663,20.732 Z" id="Fill-1" fill="#1A1918" sketch:type="MSShapeGroup"></path>
            <path d="M80.104,16.7 C80.104,14.972 79.617,13.532 78.483,12.398 C77.493,11.408 75.496,10.4 71.193,10.4 L61.978,10.4 L61.978,23 L71.193,23 C75.496,23 77.493,21.992 78.483,21.002 C79.617,19.868 80.104,18.428 80.104,16.7 L80.104,16.7 Z M64.768,20.732 L64.768,12.668 L71.139,12.668 C74.091,12.668 75.622,13.208 76.323,13.91 C76.971,14.558 77.295,15.44 77.295,16.7 C77.295,17.96 76.971,18.842 76.323,19.49 C75.622,20.192 74.091,20.732 71.139,20.732 L64.768,20.732 L64.768,20.732 Z M85.845,10.4 L85.845,23 L88.635,23 L88.635,18.824 L93.622,18.824 L100.281,23 L104.493,23 L104.493,22.946 L97.726,18.788 C100.137,18.626 101.182,18.05 101.865,17.366 C102.622,16.61 102.892,15.638 102.892,14.576 C102.892,13.514 102.622,12.488 101.938,11.804 C101.038,10.904 99.921,10.4 96.394,10.4 L85.845,10.4 L85.845,10.4 Z M88.635,12.668 L96.447,12.668 C98.463,12.668 99.201,12.884 99.633,13.316 C99.958,13.64 100.12,14.072 100.12,14.648 C100.12,15.26 99.958,15.638 99.669,15.926 C99.237,16.358 98.392,16.628 96.429,16.628 L88.635,16.628 L88.635,12.668 L88.635,12.668 Z M117.777,21.038 C114.843,21.038 113.206,20.498 112.449,19.742 C111.837,19.13 111.567,18.356 111.567,17.186 L111.567,10.4 L108.777,10.4 L108.777,17.456 C108.777,19.184 109.317,20.354 110.253,21.29 C111.387,22.424 113.529,23.288 117.777,23.288 C122.025,23.288 124.167,22.424 125.301,21.29 C126.237,20.354 126.777,19.184 126.777,17.456 L126.777,10.4 L123.987,10.4 L123.987,17.186 C123.987,18.356 123.717,19.13 123.105,19.742 C122.35,20.498 120.711,21.038 117.777,21.038 L117.777,21.038 Z M143.193,19.004 C146.686,19.004 147.927,18.392 148.773,17.546 C149.565,16.754 149.799,15.746 149.799,14.666 C149.799,13.604 149.602,12.596 148.81,11.804 C147.945,10.94 146.793,10.4 143.248,10.4 L132.934,10.4 L132.934,23 L135.724,23 L135.724,19.004 L143.193,19.004 L143.193,19.004 Z M135.724,16.754 L135.724,12.65 L143.392,12.65 C145.407,12.65 146.127,12.902 146.523,13.298 C146.901,13.676 147.027,14.108 147.027,14.702 C147.027,15.296 146.901,15.728 146.523,16.106 C146.127,16.502 145.407,16.754 143.392,16.754 L135.724,16.754 L135.724,16.754 Z M160.582,10.328 L151.815,23 L154.894,23 L156.909,20.03 L167.907,20.03 L169.924,23 L173.127,23 L164.361,10.328 L160.582,10.328 L160.582,10.328 Z M162.399,11.912 L166.396,17.798 L158.422,17.798 L162.399,11.912 L162.399,11.912 Z M180.489,20.696 L180.489,10.4 L177.699,10.4 L177.699,23 L193.162,23 L193.162,20.696 L180.489,20.696 L180.489,20.696 Z" id="Fill-2" fill="#096695" sketch:type="MSShapeGroup"></path>
            <path d="M31.664,30.316 C37.104,24.877 37.103,16.058 31.664,10.619 C31.512,10.466 31.348,10.334 31.19,10.19 C30.576,9.497 29.822,8.614 28.986,7.565 C26.891,4.938 29.053,2.699 29.053,2.699 C29.053,2.699 28.253,1.899 25.253,4.367 C23.69,5.651 21.848,6.284 20.518,6.601 C17.397,6.891 14.355,8.229 11.966,10.619 C6.526,16.058 6.526,24.877 11.966,30.316 C17.405,35.756 26.225,35.756 31.664,30.316" id="Fill-3" fill="#4A91BC" sketch:type="MSShapeGroup"></path>
            <g id="Group-7" transform="translate(8.000000, 3.000000)">
                <mask id="mask-2" sketch:name="Clip 5" fill="white">
                    <use xlink:href="#path-1"></use>
                </mask>
                <g id="Clip-5"></g>
                <path d="M22.021,28.725 L22.021,28.725 C22.595,28.305 23.145,27.836 23.664,27.316 C24.579,26.402 25.339,25.392 25.946,24.318 C25.339,25.392 24.579,26.403 23.664,27.317 C23.145,27.836 22.596,28.305 22.021,28.725 M26.843,12.531 C26.165,10.74 25.106,9.061 23.664,7.619 C23.512,7.466 23.348,7.334 23.19,7.19 C23.348,7.334 23.512,7.466 23.664,7.618 C25.106,9.06 26.166,10.74 26.843,12.531 M23.19,7.19 C22.762,6.707 22.266,6.132 21.721,5.472 C22.266,6.131 22.763,6.707 23.19,7.19 M11.626,3.713 L11.626,3.712 C11.922,3.666 12.219,3.628 12.517,3.601 C13.848,3.283 15.691,2.651 17.253,1.366 C18.209,0.58 18.942,0.125 19.497,-0.129 C18.942,0.126 18.21,0.58 17.253,1.367 C15.69,2.651 13.848,3.284 12.518,3.601 C12.22,3.628 11.922,3.666 11.626,3.713 M20.086,2.488 C19.934,0.873 21.034,-0.281 21.052,-0.3 L21.053,-0.3 C21.053,-0.3 19.934,0.859 20.086,2.488" id="Fill-4" fill="#FFFFFF" sketch:type="MSShapeGroup" mask="url(#mask-2)"></path>
                <path d="M22.021,28.725 C17.615,27.564 13.683,24.648 11.357,20.318 C8.456,14.919 8.765,8.654 11.626,3.713 C11.922,3.666 12.22,3.628 12.518,3.601 C13.848,3.284 15.69,2.651 17.253,1.367 C18.21,0.58 18.942,0.126 19.497,-0.129 C19.997,-0.358 20.353,-0.424 20.596,-0.424 C20.915,-0.424 21.042,-0.31 21.052,-0.3 C21.034,-0.281 19.934,0.873 20.086,2.488 C20.146,3.123 20.399,3.83 20.986,4.566 C21.239,4.884 21.484,5.186 21.721,5.472 C22.266,6.132 22.762,6.707 23.19,7.19 C23.348,7.334 23.512,7.466 23.664,7.619 C25.106,9.061 26.165,10.74 26.843,12.531 C28.291,16.36 27.992,20.699 25.946,24.318 C25.339,25.392 24.579,26.402 23.664,27.316 C23.145,27.836 22.595,28.305 22.021,28.725 M25.136,16.761 L21.476,17.322 C21.476,17.322 21.694,19.246 21.235,20.536 C20.777,21.825 19.179,23.597 19.179,23.597 L21.946,26.022 C21.946,26.022 23.916,24.282 24.755,21.519 C25.548,18.903 25.136,16.761 25.136,16.761" id="Fill-6" fill="#5E9AC1" sketch:type="MSShapeGroup" mask="url(#mask-2)"></path>
            </g>
            <path d="M29.946,29.022 L27.179,26.597 C27.179,26.597 28.777,24.825 29.235,23.536 C29.694,22.246 29.476,20.322 29.476,20.322 L33.136,19.761 C33.136,19.761 33.548,21.903 32.755,24.519 C31.916,27.282 29.946,29.022 29.946,29.022" id="Fill-8" fill="#BACFDF" sketch:type="MSShapeGroup"></path>
            <g id="Group-11">
                <mask id="mask-4" sketch:name="Clip 10" fill="white">
                    <use xlink:href="#path-3"></use>
                </mask>
                <g id="Clip-10"></g>
                <path d="M43.458,21.66 L45.261,19.905 C45.261,19.905 53.591,11.792 42.32,8.932 L39.587,8.238 C42.43,12.23 43.718,16.97 43.458,21.66 M12.58,1.383 L8.79,0.421 C8.79,0.421 -2.481,-2.439 0.503,8.696 L1.708,13.194 C2.765,10.398 4.409,7.771 6.681,5.52 C8.449,3.77 10.453,2.405 12.58,1.383 M8.124,37.139 L9.163,41.017 C9.163,41.017 12.147,52.153 20.477,44.04 L22.618,41.955 C17.482,42.148 12.302,40.556 8.124,37.139" id="Fill-9" fill="#096695" sketch:type="MSShapeGroup" mask="url(#mask-4)"></path>
            </g>
        </g>
    </g>
</svg>