<?xml version="1.0" encoding="UTF-8" standalone="no"?>
<svg width="625px" height="62px" viewBox="0 0 625 62" version="1.1" xmlns="http://www.w3.org/2000/svg" xmlns:xlink="http://www.w3.org/1999/xlink" xmlns:sketch="http://www.bohemiancoding.com/sketch/ns">
    <title>Untitled 15</title>
    <description>Created with Sketch (http://www.bohemiancoding.com/sketch)</description>
    <defs></defs>
    <g id="Page-1" stroke="none" stroke-width="1" fill="none" fill-rule="evenodd" sketch:type="MSPage">
        <g id="logo-civiclounge" sketch:type="MSLayerGroup" fill="#0071BC">
            <g id="Page-1" sketch:type="MSShapeGroup">
                <path d="M30.98,49.27 C37.4966992,49.27 42.8233126,46.6916924 46.96,41.535 L55.46,50.29 C48.7166329,57.8833713 40.7692124,61.68 31.6175,61.68 C22.4657876,61.68 14.9291963,58.7900289 9.0075,53.01 C3.08580372,47.2299711 0.125,39.9342107 0.125,31.1225 C0.125,22.3107893 3.14246982,14.9583628 9.1775,9.065 C15.2125302,3.1716372 22.5932897,0.225 31.32,0.225 C41.0667154,0.225 49.2266338,3.93662955 55.8,11.36 L47.555,20.71 C43.3616457,15.4966406 38.1483645,12.89 31.915,12.89 C26.9283084,12.89 22.6641844,14.5191504 19.1225,17.7775 C15.5808156,21.0358496 13.81,25.4274724 13.81,30.9525 C13.81,36.4775276 15.4816499,40.9116499 18.825,44.255 C22.16835,47.59835 26.2199762,49.27 30.98,49.27 L30.98,49.27 Z M65.915,1.585 L79.175,1.585 L79.175,61 L65.915,61 L65.915,1.585 L65.915,1.585 Z M115.725,39.41 L130.855,1.585 L145.22,1.585 L121.335,61 L110.115,61 L86.23,1.585 L100.595,1.585 L115.725,39.41 L115.725,39.41 Z M152.275,1.585 L165.535,1.585 L165.535,61 L152.275,61 L152.275,1.585 L152.275,1.585 Z M207.44,49.27 C213.956699,49.27 219.283313,46.6916924 223.42,41.535 L231.92,50.29 C225.176633,57.8833713 217.229212,61.68 208.0775,61.68 C198.925788,61.68 191.389196,58.7900289 185.4675,53.01 C179.545804,47.2299711 176.585,39.9342107 176.585,31.1225 C176.585,22.3107893 179.60247,14.9583628 185.6375,9.065 C191.67253,3.1716372 199.05329,0.225 207.78,0.225 C217.526715,0.225 225.686634,3.93662955 232.26,11.36 L224.015,20.71 C219.821646,15.4966406 214.608364,12.89 208.375,12.89 C203.388308,12.89 199.124184,14.5191504 195.5825,17.7775 C192.040816,21.0358496 190.27,25.4274724 190.27,30.9525 C190.27,36.4775276 191.94165,40.9116499 195.285,44.255 C198.62835,47.59835 202.679976,49.27 207.44,49.27 L207.44,49.27 Z M264.815,61 L264.815,1.585 L278.075,1.585 L278.075,49.185 L303.405,49.185 L303.405,61 L264.815,61 L264.815,61 Z M340.89,61.595 C332.106623,61.595 324.711697,58.6625293 318.705,52.7975 C312.698303,46.9324707 309.695,39.6367103 309.695,30.91 C309.695,22.1832897 312.698303,14.8875293 318.705,9.0225 C324.711697,3.15747067 332.106623,0.225 340.89,0.225 C349.673377,0.225 357.068303,3.15747067 363.075,9.0225 C369.081697,14.8875293 372.085,22.1832897 372.085,30.91 C372.085,39.6367103 369.081697,46.9324707 363.075,52.7975 C357.068303,58.6625293 349.673377,61.595 340.89,61.595 L340.89,61.595 Z M353.47,17.395 C350.069983,13.6549813 345.890858,11.785 340.9325,11.785 C335.974142,11.785 331.795017,13.6549813 328.395,17.395 C324.994983,21.1350187 323.295,25.6541402 323.295,30.9525 C323.295,36.2508598 324.994983,40.7558148 328.395,44.4675 C331.795017,48.1791852 335.974142,50.035 340.9325,50.035 C345.890858,50.035 350.069983,48.1791852 353.47,44.4675 C356.870017,40.7558148 358.57,36.2508598 358.57,30.9525 C358.57,25.6541402 356.870017,21.1350187 353.47,17.395 L353.47,17.395 Z M407.955,49.78 C411.695019,49.78 414.655822,48.4058471 416.8375,45.6575 C419.019178,42.9091529 420.11,39.1550238 420.11,34.395 L420.11,1.585 L433.37,1.585 L433.37,34.82 C433.37,43.4333764 430.990024,50.0491436 426.23,54.6675 C421.469976,59.2858564 415.37837,61.595 407.955,61.595 C400.53163,61.595 394.425857,59.2716899 389.6375,54.625 C384.849143,49.9783101 382.455,43.3767094 382.455,34.82 L382.455,1.585 L395.715,1.585 L395.715,34.395 C395.715,39.1550238 396.819989,42.9091529 399.03,45.6575 C401.240011,48.4058471 404.214981,49.78 407.955,49.78 L407.955,49.78 Z M488.705,1.585 L501.965,1.585 L501.965,61 L488.705,61 L460.4,23.77 L460.4,61 L447.14,61 L447.14,1.585 L459.55,1.585 L488.705,39.835 L488.705,1.585 L488.705,1.585 Z M555.175,30.74 L568.52,30.74 L568.52,51.82 C562.626637,58.3933662 554.466719,61.68 544.04,61.68 C535.31329,61.68 527.989196,58.7900289 522.0675,53.01 C516.145804,47.2299711 513.185,39.9342107 513.185,31.1225 C513.185,22.3107893 516.20247,14.9583628 522.2375,9.065 C528.27253,3.1716372 535.554124,0.225 544.0825,0.225 C552.610876,0.225 560.019969,3.02997195 566.31,8.64 L559.425,18.585 C556.761653,16.2616551 554.310845,14.6608377 552.0725,13.7825 C549.834155,12.9041623 547.41168,12.465 544.805,12.465 C539.761641,12.465 535.511684,14.1791495 532.055,17.6075 C528.598316,21.0358505 526.87,25.5549719 526.87,31.165 C526.87,36.7750281 528.527483,41.2658165 531.8425,44.6375 C535.157517,48.0091835 539.109977,49.695 543.7,49.695 C548.290023,49.695 552.114985,48.8166755 555.175,47.06 L555.175,30.74 L555.175,30.74 Z M623.175,1.585 L623.175,13.4 L593.595,13.4 L593.595,25.64 L620.2,25.64 L620.2,36.945 L593.595,36.945 L593.595,49.27 L624.11,49.27 L624.11,61 L580.335,61 L580.335,1.585 L623.175,1.585 L623.175,1.585 Z" id="CIVIC-LOUNGE"></path>
            </g>
        </g>
    </g>
</svg>