<?xml version="1.0" encoding="utf-8"?>
<!-- Generator: Adobe Illustrator 15.1.0, SVG Export Plug-In . SVG Version: 6.00 Build 0)  -->
<!DOCTYPE svg PUBLIC "-//W3C//DTD SVG 1.1//EN" "http://www.w3.org/Graphics/SVG/1.1/DTD/svg11.dtd">
<svg version="1.1" id="Layer_1" xmlns="http://www.w3.org/2000/svg" xmlns:xlink="http://www.w3.org/1999/xlink" x="0px" y="0px"
	 width="504.924px" height="297.201px" viewBox="0 0 504.924 297.201" enable-background="new 0 0 504.924 297.201"
	 xml:space="preserve">
<g>
	<path d="M316.021,287.347h13.709v9.854h-25.848v-64.686h12.139V287.347z M359.593,236.976c2.96,2.961,4.461,6.577,4.461,10.748
		v34.269c0,4.174-1.501,7.789-4.461,10.748c-2.959,2.959-6.575,4.46-10.748,4.46s-7.788-1.501-10.747-4.461
		c-2.959-2.956-4.46-6.572-4.46-10.747v-34.269c0-4.173,1.501-7.789,4.46-10.748c2.96-2.96,6.576-4.461,10.747-4.461
		C353.017,232.515,356.633,234.016,359.593,236.976z M345.775,284.278c0,0.854,0.289,1.54,0.908,2.158
		c0.622,0.622,1.308,0.911,2.161,0.911s1.541-0.289,2.161-0.909c0.62-0.618,0.908-1.304,0.908-2.16v-38.839
		c0-0.855-0.289-1.542-0.908-2.162c-0.62-0.618-1.308-0.907-2.161-0.907s-1.54,0.288-2.159,0.908c-0.621,0.62-0.91,1.308-0.91,2.161
		V284.278z M388.578,284.278c0,0.856-0.288,1.542-0.907,2.16c-0.62,0.62-1.308,0.909-2.162,0.909c-0.854,0-1.539-0.289-2.161-0.911
		c-0.619-0.617-0.907-1.303-0.907-2.158v-51.763h-12.138v49.478c0,4.175,1.501,7.791,4.46,10.747
		c2.959,2.96,6.574,4.461,10.746,4.461c4.173,0,7.789-1.501,10.749-4.46c2.959-2.958,4.46-6.574,4.46-10.748v-49.478h-12.14V284.278
		z M425.244,257.488l-6.479-24.973h-11.799v64.686h12.139v-24.973l6.479,24.973h11.799v-64.686h-12.139V257.488z M458.784,232.515
		c-4.17,0-7.786,1.501-10.747,4.461c-2.96,2.96-4.461,6.576-4.461,10.748v34.269c0,4.175,1.501,7.791,4.461,10.747
		c2.96,2.96,6.576,4.461,10.747,4.461h15.209v-37.269h-14.68v9.854h2.54v17.562h-3.069c-0.854,0-1.54-0.289-2.161-0.91
		c-0.62-0.618-0.908-1.305-0.908-2.159v-38.839c0-0.854,0.289-1.541,0.908-2.161c0.621-0.619,1.308-0.908,2.161-0.908
		s1.54,0.289,2.16,0.907c0.62,0.62,0.909,1.308,0.909,2.162v9.695h12.14v-7.41c0-4.171-1.501-7.787-4.461-10.748
		C466.571,234.016,462.955,232.515,458.784,232.515z M492.229,287.347v-17.562h11.295v-9.854h-11.295V242.37h12.566v-9.854h-24.705
		v64.686h24.833v-9.854H492.229z"/>
	<path fill="#AC1F26" d="M92.749,16.339c10.577,10.579,15.939,23.5,15.939,38.406v57.853H65.126V46.605
		c0-2.998-1.015-5.41-3.195-7.591c-2.177-2.175-4.588-3.19-7.587-3.19c-3,0-5.411,1.014-7.59,3.192
		c-2.177,2.178-3.191,4.589-3.191,7.589v204.393c0,3.001,1.014,5.411,3.19,7.586c2.18,2.181,4.591,3.195,7.591,3.195
		c3,0,5.411-1.015,7.589-3.193c2.179-2.179,3.193-4.589,3.193-7.588v-63.993h43.422l0.141,53.1c0,17.21-5.065,30.283-15.939,41.157
		c-10.575,10.577-23.497,15.939-38.406,15.939c-14.91,0-27.832-5.363-38.406-15.939C5.362,270.688,0,257.767,0,242.857V54.746
		c0-14.908,5.362-27.83,15.938-38.406C26.515,5.764,39.437,0.402,54.344,0.402C69.25,0.402,82.171,5.764,92.749,16.339z
		 M505.121,80.598V54.746c0-14.905-5.362-27.827-15.938-38.406C478.605,5.764,465.684,0.402,450.777,0.402
		c-14.908,0-27.83,5.362-38.405,15.938c-10.576,10.576-15.938,23.497-15.938,38.406v105.111c0,14.911,5.362,27.832,15.938,38.404
		c10.573,10.576,23.495,15.939,38.406,15.939c14.909,0,27.83-5.362,38.405-15.939c11.023-11.022,15.938-23.711,15.938-41.181
		l-0.164-23.076h-43.398v33.993c0,3-1.015,5.411-3.191,7.589c-2.179,2.178-4.59,3.192-7.59,3.192c-3.001,0-5.412-1.014-7.591-3.194
		c-2.177-2.175-3.19-4.585-3.19-7.587V46.605c0-3,1.015-5.412,3.191-7.589c2.179-2.178,4.59-3.192,7.59-3.192
		c2.998,0,5.41,1.015,7.588,3.19c2.179,2.181,3.193,4.593,3.193,7.591v33.993H505.121z M128.586,297.201h43.563V0.402h-43.563
		V297.201z M332.47,214.201h43.563V55.402H332.47V214.201z M252.394,180.948L231.236,0.402h-42.078l38.044,296.799h50.383
		L315.629,0.402H273.55L252.394,180.948z M346.907,14.881l-16.424,2.387l11.885,11.584l-2.807,16.356l14.689-7.724l14.689,7.724
		l-2.805-16.356l11.883-11.584l-16.424-2.387L354.251,0L346.907,14.881z"/>
</g>
</svg>
